# Project SEAM Phase 1 violet low-poly blockout
mtllib phase1-violet-blockout.mtl
o left_shoe
usemtl shoe
v -0.440000 0.020000 -0.260000
v -0.100000 0.020000 -0.260000
v -0.100000 0.260000 -0.260000
v -0.440000 0.260000 -0.260000
v -0.440000 0.020000 0.360000
v -0.100000 0.020000 0.360000
v -0.100000 0.260000 0.360000
v -0.440000 0.260000 0.360000
f 1 3 2
f 1 4 3
f 5 6 7
f 5 7 8
f 1 2 6
f 1 6 5
f 2 3 7
f 2 7 6
f 3 4 8
f 3 8 7
f 4 1 5
f 4 5 8
o right_shoe
usemtl shoe
v 0.100000 0.020000 -0.260000
v 0.440000 0.020000 -0.260000
v 0.440000 0.260000 -0.260000
v 0.100000 0.260000 -0.260000
v 0.100000 0.020000 0.360000
v 0.440000 0.020000 0.360000
v 0.440000 0.260000 0.360000
v 0.100000 0.260000 0.360000
f 9 11 10
f 9 12 11
f 13 14 15
f 13 15 16
f 9 10 14
f 9 14 13
f 10 11 15
f 10 15 14
f 11 12 16
f 11 16 15
f 12 9 13
f 12 13 16
o left_lower_leg
usemtl jeans
v -0.360000 0.225000 -0.120000
v -0.140000 0.225000 -0.120000
v -0.140000 0.225000 0.120000
v -0.360000 0.225000 0.120000
v -0.375000 1.675000 -0.135000
v -0.125000 1.675000 -0.135000
v -0.125000 1.675000 0.135000
v -0.375000 1.675000 0.135000
f 17 18 19
f 17 19 20
f 21 23 22
f 21 24 23
f 17 21 22
f 17 22 18
f 18 22 23
f 18 23 19
f 19 23 24
f 19 24 20
f 20 24 21
f 20 21 17
o right_lower_leg
usemtl jeans
v 0.140000 0.225000 -0.120000
v 0.360000 0.225000 -0.120000
v 0.360000 0.225000 0.120000
v 0.140000 0.225000 0.120000
v 0.125000 1.675000 -0.135000
v 0.375000 1.675000 -0.135000
v 0.375000 1.675000 0.135000
v 0.125000 1.675000 0.135000
f 25 26 27
f 25 27 28
f 29 31 30
f 29 32 31
f 25 29 30
f 25 30 26
f 26 30 31
f 26 31 27
f 27 31 32
f 27 32 28
f 28 32 29
f 28 29 25
o left_upper_leg
usemtl jeans
v -0.370000 1.575000 -0.140000
v -0.110000 1.575000 -0.140000
v -0.110000 1.575000 0.140000
v -0.370000 1.575000 0.140000
v -0.410000 2.725000 -0.165000
v -0.070000 2.725000 -0.165000
v -0.070000 2.725000 0.165000
v -0.410000 2.725000 0.165000
f 33 34 35
f 33 35 36
f 37 39 38
f 37 40 39
f 33 37 38
f 33 38 34
f 34 38 39
f 34 39 35
f 35 39 40
f 35 40 36
f 36 40 37
f 36 37 33
o right_upper_leg
usemtl jeans
v 0.110000 1.575000 -0.140000
v 0.370000 1.575000 -0.140000
v 0.370000 1.575000 0.140000
v 0.110000 1.575000 0.140000
v 0.070000 2.725000 -0.165000
v 0.410000 2.725000 -0.165000
v 0.410000 2.725000 0.165000
v 0.070000 2.725000 0.165000
f 41 42 43
f 41 43 44
f 45 47 46
f 45 48 47
f 41 45 46
f 41 46 42
f 42 46 47
f 42 47 43
f 43 47 48
f 43 48 44
f 44 48 45
f 44 45 41
o hips
usemtl jeans
v -0.360000 2.600000 -0.190000
v 0.360000 2.600000 -0.190000
v 0.360000 2.600000 0.190000
v -0.360000 2.600000 0.190000
v -0.325000 3.060000 -0.170000
v 0.325000 3.060000 -0.170000
v 0.325000 3.060000 0.170000
v -0.325000 3.060000 0.170000
f 49 50 51
f 49 51 52
f 53 55 54
f 53 56 55
f 49 53 54
f 49 54 50
f 50 54 55
f 50 55 51
f 51 55 56
f 51 56 52
f 52 56 53
f 52 53 49
o shirt
usemtl shirt
v -0.340000 2.940000 -0.150000
v 0.340000 2.940000 -0.150000
v 0.340000 2.940000 0.150000
v -0.340000 2.940000 0.150000
v -0.370000 4.160000 -0.170000
v 0.370000 4.160000 -0.170000
v 0.370000 4.160000 0.170000
v -0.370000 4.160000 0.170000
f 57 58 59
f 57 59 60
f 61 63 62
f 61 64 63
f 57 61 62
f 57 62 58
f 58 62 63
f 58 63 59
f 59 63 64
f 59 64 60
f 60 64 61
f 60 61 57
o hoodie
usemtl hoodie
v -0.430000 2.820000 -0.190000
v 0.430000 2.820000 -0.190000
v 0.430000 2.820000 0.250000
v -0.430000 2.820000 0.250000
v -0.455000 4.320000 -0.210000
v 0.455000 4.320000 -0.210000
v 0.455000 4.320000 0.270000
v -0.455000 4.320000 0.270000
f 65 66 67
f 65 67 68
f 69 71 70
f 69 72 71
f 65 69 70
f 65 70 66
f 66 70 71
f 66 71 67
f 67 71 72
f 67 72 68
f 68 72 69
f 68 69 65
o left_arm
usemtl hoodie
v -0.807522 2.737708 -0.160000
v -0.548354 2.716930 -0.160000
v -0.432478 4.162292 -0.160000
v -0.691646 4.183070 -0.160000
v -0.807522 2.737708 0.160000
v -0.548354 2.716930 0.160000
v -0.432478 4.162292 0.160000
v -0.691646 4.183070 0.160000
f 73 75 74
f 73 76 75
f 77 78 79
f 77 79 80
f 73 74 78
f 73 78 77
f 74 75 79
f 74 79 78
f 75 76 80
f 75 80 79
f 76 73 77
f 76 77 80
o right_arm
usemtl hoodie
v 0.548354 2.716930 -0.160000
v 0.807522 2.737708 -0.160000
v 0.691646 4.183070 -0.160000
v 0.432478 4.162292 -0.160000
v 0.548354 2.716930 0.160000
v 0.807522 2.737708 0.160000
v 0.691646 4.183070 0.160000
v 0.432478 4.162292 0.160000
f 81 83 82
f 81 84 83
f 85 86 87
f 85 87 88
f 81 82 86
f 81 86 85
f 82 83 87
f 82 87 86
f 83 84 88
f 83 88 87
f 84 81 85
f 84 85 88
o left_hand
usemtl skin
v -0.770000 2.530000 -0.110000
v -0.570000 2.530000 -0.110000
v -0.570000 2.830000 -0.110000
v -0.770000 2.830000 -0.110000
v -0.770000 2.530000 0.110000
v -0.570000 2.530000 0.110000
v -0.570000 2.830000 0.110000
v -0.770000 2.830000 0.110000
f 89 91 90
f 89 92 91
f 93 94 95
f 93 95 96
f 89 90 94
f 89 94 93
f 90 91 95
f 90 95 94
f 91 92 96
f 91 96 95
f 92 89 93
f 92 93 96
o right_hand
usemtl skin
v 0.570000 2.530000 -0.110000
v 0.770000 2.530000 -0.110000
v 0.770000 2.830000 -0.110000
v 0.570000 2.830000 -0.110000
v 0.570000 2.530000 0.110000
v 0.770000 2.530000 0.110000
v 0.770000 2.830000 0.110000
v 0.570000 2.830000 0.110000
f 97 99 98
f 97 100 99
f 101 102 103
f 101 103 104
f 97 98 102
f 97 102 101
f 98 99 103
f 98 103 102
f 99 100 104
f 99 104 103
f 100 97 101
f 100 101 104
o neck
usemtl skin
v -0.125000 4.290000 -0.115000
v 0.125000 4.290000 -0.115000
v 0.125000 4.570000 -0.115000
v -0.125000 4.570000 -0.115000
v -0.125000 4.290000 0.115000
v 0.125000 4.290000 0.115000
v 0.125000 4.570000 0.115000
v -0.125000 4.570000 0.115000
f 105 107 106
f 105 108 107
f 109 110 111
f 109 111 112
f 105 106 110
f 105 110 109
f 106 107 111
f 106 111 110
f 107 108 112
f 107 112 111
f 108 105 109
f 108 109 112
o head
usemtl skin
v -0.257608 5.394871 0.000000
v 0.257608 5.394871 0.000000
v -0.257608 4.425129 0.000000
v 0.257608 4.425129 0.000000
v 0.000000 4.610333 0.365780
v 0.000000 5.209667 0.365780
v 0.000000 4.610333 -0.365780
v 0.000000 5.209667 -0.365780
v 0.416819 4.910000 -0.226064
v 0.416819 4.910000 0.226064
v -0.416819 4.910000 -0.226064
v -0.416819 4.910000 0.226064
f 113 124 118
f 113 118 114
f 113 114 120
f 113 120 123
f 113 123 124
f 114 118 122
f 118 124 117
f 124 123 115
f 123 120 119
f 120 114 121
f 116 122 117
f 116 117 115
f 116 115 119
f 116 119 121
f 116 121 122
f 117 122 118
f 115 117 124
f 119 115 123
f 121 119 120
f 122 121 114
o hair_cap
usemtl hair
v -0.283895 5.526364 -0.020000
v 0.283895 5.526364 -0.020000
v -0.283895 4.573636 -0.020000
v 0.283895 4.573636 -0.020000
v 0.000000 4.755591 0.379806
v 0.000000 5.344409 0.379806
v 0.000000 4.755591 -0.419806
v 0.000000 5.344409 -0.419806
v 0.459351 5.050000 -0.267094
v 0.459351 5.050000 0.227094
v -0.459351 5.050000 -0.267094
v -0.459351 5.050000 0.227094
f 125 136 130
f 125 130 126
f 125 126 132
f 125 132 135
f 125 135 136
f 126 130 134
f 130 136 129
f 136 135 127
f 135 132 131
f 132 126 133
f 128 134 129
f 128 129 127
f 128 127 131
f 128 131 133
f 128 133 134
f 129 134 130
f 127 129 136
f 131 127 135
f 133 131 132
f 134 133 126
o hood
usemtl hoodie
v -0.390000 4.223055 -0.336821
v 0.390000 4.223055 -0.336821
v 0.390000 4.598788 -0.280035
v -0.390000 4.598788 -0.280035
v -0.390000 4.181212 -0.059965
v 0.390000 4.181212 -0.059965
v 0.390000 4.556945 -0.003179
v -0.390000 4.556945 -0.003179
f 137 139 138
f 137 140 139
f 141 142 143
f 141 143 144
f 137 138 142
f 137 142 141
f 138 139 143
f 138 143 142
f 139 140 144
f 139 144 143
f 140 137 141
f 140 141 144
o fringe_left
usemtl hair
v -0.390000 5.220000 0.180000
v 0.050000 5.220000 0.180000
v -0.170000 4.170000 0.180000
v -0.390000 5.220000 0.500000
v 0.050000 5.220000 0.500000
v -0.250000 4.170000 0.500000
f 145 146 147
f 148 150 149
f 145 148 149
f 145 149 146
f 146 149 150
f 146 150 147
f 147 150 148
f 147 148 145
o fringe_center
usemtl hair
v -0.140000 5.150000 0.200000
v 0.300000 5.150000 0.200000
v 0.080000 4.390000 0.200000
v -0.140000 5.150000 0.520000
v 0.300000 5.150000 0.520000
v 0.160000 4.390000 0.520000
f 151 152 153
f 154 156 155
f 151 154 155
f 151 155 152
f 152 155 156
f 152 156 153
f 153 156 154
f 153 154 151
o side_lock
usemtl accent
v 0.090000 4.940000 -0.020000
v 0.530000 4.940000 -0.020000
v 0.310000 4.200000 -0.020000
v 0.090000 4.940000 0.300000
v 0.530000 4.940000 0.300000
v 0.390000 4.200000 0.300000
f 157 158 159
f 160 162 161
f 157 160 161
f 157 161 158
f 158 161 162
f 158 162 159
f 159 162 160
f 159 160 157
o left_splice
usemtl accent
v -0.390000 1.402500 0.122500
v -0.120000 1.402500 0.122500
v -0.120000 1.437500 0.122500
v -0.390000 1.437500 0.122500
v -0.390000 1.402500 0.147500
v -0.120000 1.402500 0.147500
v -0.120000 1.437500 0.147500
v -0.390000 1.437500 0.147500
f 163 165 164
f 163 166 165
f 167 168 169
f 167 169 170
f 163 164 168
f 163 168 167
f 164 165 169
f 164 169 168
f 165 166 170
f 165 170 169
f 166 163 167
f 166 167 170
o hoodie_splice
usemtl accent
v 0.330000 3.382500 0.242500
v 0.530000 3.382500 0.242500
v 0.530000 3.417500 0.242500
v 0.330000 3.417500 0.242500
v 0.330000 3.382500 0.267500
v 0.530000 3.382500 0.267500
v 0.530000 3.417500 0.267500
v 0.330000 3.417500 0.267500
f 171 173 172
f 171 174 173
f 175 176 177
f 175 177 178
f 171 172 176
f 171 176 175
f 172 173 177
f 172 177 176
f 173 174 178
f 173 178 177
f 174 171 175
f 174 175 178
