<svg xmlns="http://www.w3.org/2000/svg" width="1440.00" height="812.00" viewBox="0 0 1440.00 812.00">
<defs><linearGradient id="top" x1="0" x2="0" y1="0" y2="1"><stop stop-color="#27252c"/><stop offset="1" stop-color="#19181d"/></linearGradient></defs>
<rect width="100%" height="100%" fill="#141318"/>
<rect x="0" y="0" width="100%" height="54" fill="url(#top)"/>
<text x="24" y="33" fill="#f0edf4" font-family="sans-serif" font-size="18" font-weight="600">Project SEAM — Phase 1 Editor Foundation</text>
<text x="1190.00" y="32" fill="#a6a0ad" font-family="monospace" font-size="12">PHASE 1 · REV 3</text>
<rect x="0" y="54" width="100%" height="34" fill="#201e24"/>
<rect x="0" y="88.00" width="76.00" height="724.00" fill="#1c1a20"/>
<rect x="76.00" y="88.00" width="1364.00" height="724.00" fill="#17161b"/>
<line x1="76.00" y1="54" x2="76.00" y2="812.00" stroke="#49424f" stroke-width="1.40"/>
<text x="81.00" y="76" fill="#8d8694" font-family="monospace" font-size="11">1</text>
<line x1="148.00" y1="54" x2="148.00" y2="812.00" stroke="#2a272e" stroke-width="0.70"/>
<line x1="220.00" y1="54" x2="220.00" y2="812.00" stroke="#2a272e" stroke-width="0.70"/>
<line x1="292.00" y1="54" x2="292.00" y2="812.00" stroke="#2a272e" stroke-width="0.70"/>
<line x1="364.00" y1="54" x2="364.00" y2="812.00" stroke="#49424f" stroke-width="1.40"/>
<text x="369.00" y="76" fill="#8d8694" font-family="monospace" font-size="11">2</text>
<line x1="436.00" y1="54" x2="436.00" y2="812.00" stroke="#2a272e" stroke-width="0.70"/>
<line x1="508.00" y1="54" x2="508.00" y2="812.00" stroke="#2a272e" stroke-width="0.70"/>
<line x1="580.00" y1="54" x2="580.00" y2="812.00" stroke="#2a272e" stroke-width="0.70"/>
<line x1="652.00" y1="54" x2="652.00" y2="812.00" stroke="#49424f" stroke-width="1.40"/>
<text x="657.00" y="76" fill="#8d8694" font-family="monospace" font-size="11">3</text>
<line x1="724.00" y1="54" x2="724.00" y2="812.00" stroke="#2a272e" stroke-width="0.70"/>
<line x1="796.00" y1="54" x2="796.00" y2="812.00" stroke="#2a272e" stroke-width="0.70"/>
<line x1="868.00" y1="54" x2="868.00" y2="812.00" stroke="#2a272e" stroke-width="0.70"/>
<line x1="940.00" y1="54" x2="940.00" y2="812.00" stroke="#49424f" stroke-width="1.40"/>
<text x="945.00" y="76" fill="#8d8694" font-family="monospace" font-size="11">4</text>
<line x1="1012.00" y1="54" x2="1012.00" y2="812.00" stroke="#2a272e" stroke-width="0.70"/>
<line x1="1084.00" y1="54" x2="1084.00" y2="812.00" stroke="#2a272e" stroke-width="0.70"/>
<line x1="1156.00" y1="54" x2="1156.00" y2="812.00" stroke="#2a272e" stroke-width="0.70"/>
<line x1="1228.00" y1="54" x2="1228.00" y2="812.00" stroke="#49424f" stroke-width="1.40"/>
<text x="1233.00" y="76" fill="#8d8694" font-family="monospace" font-size="11">5</text>
<line x1="1300.00" y1="54" x2="1300.00" y2="812.00" stroke="#2a272e" stroke-width="0.70"/>
<line x1="1372.00" y1="54" x2="1372.00" y2="812.00" stroke="#2a272e" stroke-width="0.70"/>
<rect x="0" y="88.00" width="76.00" height="18.00" fill="#302d35"/>
<line x1="0" y1="88.00" x2="100%" y2="88.00" stroke="#39343e" stroke-width="1.00"/>
<text x="12" y="101.00" fill="#aaa4b0" font-family="monospace" font-size="10">C6</text>
<rect x="0" y="106.00" width="76.00" height="18.00" fill="#302d35"/>
<line x1="0" y1="106.00" x2="100%" y2="106.00" stroke="#242229" stroke-width="0.50"/>
<rect x="0" y="124.00" width="76.00" height="18.00" fill="#242129"/>
<line x1="0" y1="124.00" x2="100%" y2="124.00" stroke="#242229" stroke-width="0.50"/>
<rect x="0" y="142.00" width="76.00" height="18.00" fill="#302d35"/>
<line x1="0" y1="142.00" x2="100%" y2="142.00" stroke="#242229" stroke-width="0.50"/>
<rect x="0" y="160.00" width="76.00" height="18.00" fill="#242129"/>
<line x1="0" y1="160.00" x2="100%" y2="160.00" stroke="#242229" stroke-width="0.50"/>
<rect x="0" y="178.00" width="76.00" height="18.00" fill="#302d35"/>
<line x1="0" y1="178.00" x2="100%" y2="178.00" stroke="#242229" stroke-width="0.50"/>
<rect x="0" y="196.00" width="76.00" height="18.00" fill="#242129"/>
<line x1="0" y1="196.00" x2="100%" y2="196.00" stroke="#242229" stroke-width="0.50"/>
<rect x="0" y="214.00" width="76.00" height="18.00" fill="#302d35"/>
<line x1="0" y1="214.00" x2="100%" y2="214.00" stroke="#242229" stroke-width="0.50"/>
<rect x="0" y="232.00" width="76.00" height="18.00" fill="#302d35"/>
<line x1="0" y1="232.00" x2="100%" y2="232.00" stroke="#242229" stroke-width="0.50"/>
<rect x="0" y="250.00" width="76.00" height="18.00" fill="#242129"/>
<line x1="0" y1="250.00" x2="100%" y2="250.00" stroke="#242229" stroke-width="0.50"/>
<rect x="0" y="268.00" width="76.00" height="18.00" fill="#302d35"/>
<line x1="0" y1="268.00" x2="100%" y2="268.00" stroke="#242229" stroke-width="0.50"/>
<rect x="0" y="286.00" width="76.00" height="18.00" fill="#242129"/>
<line x1="0" y1="286.00" x2="100%" y2="286.00" stroke="#242229" stroke-width="0.50"/>
<rect x="0" y="304.00" width="76.00" height="18.00" fill="#302d35"/>
<line x1="0" y1="304.00" x2="100%" y2="304.00" stroke="#39343e" stroke-width="1.00"/>
<text x="12" y="317.00" fill="#aaa4b0" font-family="monospace" font-size="10">C5</text>
<rect x="0" y="322.00" width="76.00" height="18.00" fill="#302d35"/>
<line x1="0" y1="322.00" x2="100%" y2="322.00" stroke="#242229" stroke-width="0.50"/>
<rect x="0" y="340.00" width="76.00" height="18.00" fill="#242129"/>
<line x1="0" y1="340.00" x2="100%" y2="340.00" stroke="#242229" stroke-width="0.50"/>
<rect x="0" y="358.00" width="76.00" height="18.00" fill="#302d35"/>
<line x1="0" y1="358.00" x2="100%" y2="358.00" stroke="#242229" stroke-width="0.50"/>
<rect x="0" y="376.00" width="76.00" height="18.00" fill="#242129"/>
<line x1="0" y1="376.00" x2="100%" y2="376.00" stroke="#242229" stroke-width="0.50"/>
<rect x="0" y="394.00" width="76.00" height="18.00" fill="#302d35"/>
<line x1="0" y1="394.00" x2="100%" y2="394.00" stroke="#242229" stroke-width="0.50"/>
<rect x="0" y="412.00" width="76.00" height="18.00" fill="#242129"/>
<line x1="0" y1="412.00" x2="100%" y2="412.00" stroke="#242229" stroke-width="0.50"/>
<rect x="0" y="430.00" width="76.00" height="18.00" fill="#302d35"/>
<line x1="0" y1="430.00" x2="100%" y2="430.00" stroke="#242229" stroke-width="0.50"/>
<rect x="0" y="448.00" width="76.00" height="18.00" fill="#302d35"/>
<line x1="0" y1="448.00" x2="100%" y2="448.00" stroke="#242229" stroke-width="0.50"/>
<rect x="0" y="466.00" width="76.00" height="18.00" fill="#242129"/>
<line x1="0" y1="466.00" x2="100%" y2="466.00" stroke="#242229" stroke-width="0.50"/>
<rect x="0" y="484.00" width="76.00" height="18.00" fill="#302d35"/>
<line x1="0" y1="484.00" x2="100%" y2="484.00" stroke="#242229" stroke-width="0.50"/>
<rect x="0" y="502.00" width="76.00" height="18.00" fill="#242129"/>
<line x1="0" y1="502.00" x2="100%" y2="502.00" stroke="#242229" stroke-width="0.50"/>
<rect x="0" y="520.00" width="76.00" height="18.00" fill="#302d35"/>
<line x1="0" y1="520.00" x2="100%" y2="520.00" stroke="#39343e" stroke-width="1.00"/>
<text x="12" y="533.00" fill="#aaa4b0" font-family="monospace" font-size="10">C4</text>
<rect x="0" y="538.00" width="76.00" height="18.00" fill="#302d35"/>
<line x1="0" y1="538.00" x2="100%" y2="538.00" stroke="#242229" stroke-width="0.50"/>
<rect x="0" y="556.00" width="76.00" height="18.00" fill="#242129"/>
<line x1="0" y1="556.00" x2="100%" y2="556.00" stroke="#242229" stroke-width="0.50"/>
<rect x="0" y="574.00" width="76.00" height="18.00" fill="#302d35"/>
<line x1="0" y1="574.00" x2="100%" y2="574.00" stroke="#242229" stroke-width="0.50"/>
<rect x="0" y="592.00" width="76.00" height="18.00" fill="#242129"/>
<line x1="0" y1="592.00" x2="100%" y2="592.00" stroke="#242229" stroke-width="0.50"/>
<rect x="0" y="610.00" width="76.00" height="18.00" fill="#302d35"/>
<line x1="0" y1="610.00" x2="100%" y2="610.00" stroke="#242229" stroke-width="0.50"/>
<rect x="0" y="628.00" width="76.00" height="18.00" fill="#242129"/>
<line x1="0" y1="628.00" x2="100%" y2="628.00" stroke="#242229" stroke-width="0.50"/>
<rect x="0" y="646.00" width="76.00" height="18.00" fill="#302d35"/>
<line x1="0" y1="646.00" x2="100%" y2="646.00" stroke="#242229" stroke-width="0.50"/>
<rect x="0" y="664.00" width="76.00" height="18.00" fill="#302d35"/>
<line x1="0" y1="664.00" x2="100%" y2="664.00" stroke="#242229" stroke-width="0.50"/>
<rect x="0" y="682.00" width="76.00" height="18.00" fill="#242129"/>
<line x1="0" y1="682.00" x2="100%" y2="682.00" stroke="#242229" stroke-width="0.50"/>
<rect x="0" y="700.00" width="76.00" height="18.00" fill="#302d35"/>
<line x1="0" y1="700.00" x2="100%" y2="700.00" stroke="#242229" stroke-width="0.50"/>
<rect x="0" y="718.00" width="76.00" height="18.00" fill="#242129"/>
<line x1="0" y1="718.00" x2="100%" y2="718.00" stroke="#242229" stroke-width="0.50"/>
<rect x="0" y="736.00" width="76.00" height="18.00" fill="#302d35"/>
<line x1="0" y1="736.00" x2="100%" y2="736.00" stroke="#39343e" stroke-width="1.00"/>
<text x="12" y="749.00" fill="#aaa4b0" font-family="monospace" font-size="10">C3</text>
<rect x="0" y="754.00" width="76.00" height="18.00" fill="#302d35"/>
<line x1="0" y1="754.00" x2="100%" y2="754.00" stroke="#242229" stroke-width="0.50"/>
<rect x="0" y="772.00" width="76.00" height="18.00" fill="#242129"/>
<line x1="0" y1="772.00" x2="100%" y2="772.00" stroke="#242229" stroke-width="0.50"/>
<rect x="0" y="790.00" width="76.00" height="18.00" fill="#302d35"/>
<line x1="0" y1="790.00" x2="100%" y2="790.00" stroke="#242229" stroke-width="0.50"/>
<rect x="0" y="808.00" width="76.00" height="18.00" fill="#242129"/>
<line x1="0" y1="808.00" x2="100%" y2="808.00" stroke="#242229" stroke-width="0.50"/>
<rect x="77.00" y="737.00" width="11.50" height="16.00" rx="2" fill="#4d3d55" stroke="#76647e" stroke-width="1"/>
<rect x="95.00" y="611.00" width="11.50" height="16.00" rx="2" fill="#44384b" stroke="#76647e" stroke-width="1"/>
<rect x="113.00" y="485.00" width="11.50" height="16.00" rx="2" fill="#4d3d55" stroke="#76647e" stroke-width="1"/>
<rect x="131.00" y="359.00" width="11.50" height="16.00" rx="2" fill="#44384b" stroke="#76647e" stroke-width="1"/>
<rect x="149.00" y="683.00" width="11.50" height="16.00" rx="2" fill="#44384b" stroke="#76647e" stroke-width="1"/>
<rect x="167.00" y="557.00" width="11.50" height="16.00" rx="2" fill="#4d3d55" stroke="#76647e" stroke-width="1"/>
<rect x="185.00" y="431.00" width="11.50" height="16.00" rx="2" fill="#44384b" stroke="#76647e" stroke-width="1"/>
<rect x="203.00" y="305.00" width="11.50" height="16.00" rx="2" fill="#4d3d55" stroke="#76647e" stroke-width="1"/>
<rect x="239.00" y="611.00" width="11.50" height="16.00" rx="2" fill="#8a536e" stroke="#e2b3ca" stroke-width="1"/>
<rect x="257.00" y="485.00" width="11.50" height="16.00" rx="2" fill="#8a536e" stroke="#e2b3ca" stroke-width="1"/>
<rect x="275.00" y="359.00" width="11.50" height="16.00" rx="2" fill="#8a536e" stroke="#e2b3ca" stroke-width="1"/>
<rect x="275.00" y="701.00" width="11.50" height="16.00" rx="2" fill="#4d3d55" stroke="#76647e" stroke-width="1"/>
<rect x="293.00" y="575.00" width="11.50" height="16.00" rx="2" fill="#44384b" stroke="#76647e" stroke-width="1"/>
<rect x="311.00" y="449.00" width="11.50" height="16.00" rx="2" fill="#4d3d55" stroke="#76647e" stroke-width="1"/>
<rect x="329.00" y="323.00" width="11.50" height="16.00" rx="2" fill="#44384b" stroke="#76647e" stroke-width="1"/>
<rect x="347.00" y="647.00" width="11.50" height="16.00" rx="2" fill="#44384b" stroke="#76647e" stroke-width="1"/>
<rect x="365.00" y="521.00" width="11.50" height="16.00" rx="2" fill="#4d3d55" stroke="#76647e" stroke-width="1"/>
<rect x="383.00" y="395.00" width="11.50" height="16.00" rx="2" fill="#44384b" stroke="#76647e" stroke-width="1"/>
<rect x="401.00" y="719.00" width="11.50" height="16.00" rx="2" fill="#44384b" stroke="#76647e" stroke-width="1"/>
<rect x="419.00" y="593.00" width="11.50" height="16.00" rx="2" fill="#4d3d55" stroke="#76647e" stroke-width="1"/>
<rect x="437.00" y="467.00" width="11.50" height="16.00" rx="2" fill="#44384b" stroke="#76647e" stroke-width="1"/>
<rect x="455.00" y="341.00" width="11.50" height="16.00" rx="2" fill="#4d3d55" stroke="#76647e" stroke-width="1"/>
<rect x="473.00" y="665.00" width="11.50" height="16.00" rx="2" fill="#4d3d55" stroke="#76647e" stroke-width="1"/>
<rect x="491.00" y="539.00" width="11.50" height="16.00" rx="2" fill="#44384b" stroke="#76647e" stroke-width="1"/>
<rect x="509.00" y="413.00" width="11.50" height="16.00" rx="2" fill="#4d3d55" stroke="#76647e" stroke-width="1"/>
<rect x="527.00" y="737.00" width="11.50" height="16.00" rx="2" fill="#4d3d55" stroke="#76647e" stroke-width="1"/>
<rect x="545.00" y="611.00" width="11.50" height="16.00" rx="2" fill="#44384b" stroke="#76647e" stroke-width="1"/>
<rect x="563.00" y="485.00" width="11.50" height="16.00" rx="2" fill="#4d3d55" stroke="#76647e" stroke-width="1"/>
<rect x="581.00" y="359.00" width="11.50" height="16.00" rx="2" fill="#44384b" stroke="#76647e" stroke-width="1"/>
<rect x="599.00" y="683.00" width="11.50" height="16.00" rx="2" fill="#44384b" stroke="#76647e" stroke-width="1"/>
<rect x="617.00" y="557.00" width="11.50" height="16.00" rx="2" fill="#4d3d55" stroke="#76647e" stroke-width="1"/>
<rect x="635.00" y="431.00" width="11.50" height="16.00" rx="2" fill="#44384b" stroke="#76647e" stroke-width="1"/>
<rect x="653.00" y="305.00" width="11.50" height="16.00" rx="2" fill="#4d3d55" stroke="#76647e" stroke-width="1"/>
<rect x="671.00" y="629.00" width="11.50" height="16.00" rx="2" fill="#4d3d55" stroke="#76647e" stroke-width="1"/>
<rect x="689.00" y="503.00" width="11.50" height="16.00" rx="2" fill="#44384b" stroke="#76647e" stroke-width="1"/>
<rect x="707.00" y="377.00" width="11.50" height="16.00" rx="2" fill="#4d3d55" stroke="#76647e" stroke-width="1"/>
<rect x="725.00" y="701.00" width="11.50" height="16.00" rx="2" fill="#4d3d55" stroke="#76647e" stroke-width="1"/>
<rect x="743.00" y="575.00" width="11.50" height="16.00" rx="2" fill="#44384b" stroke="#76647e" stroke-width="1"/>
<rect x="761.00" y="449.00" width="11.50" height="16.00" rx="2" fill="#4d3d55" stroke="#76647e" stroke-width="1"/>
<rect x="779.00" y="323.00" width="11.50" height="16.00" rx="2" fill="#44384b" stroke="#76647e" stroke-width="1"/>
<rect x="797.00" y="647.00" width="11.50" height="16.00" rx="2" fill="#44384b" stroke="#76647e" stroke-width="1"/>
<rect x="815.00" y="521.00" width="11.50" height="16.00" rx="2" fill="#4d3d55" stroke="#76647e" stroke-width="1"/>
<rect x="833.00" y="395.00" width="11.50" height="16.00" rx="2" fill="#44384b" stroke="#76647e" stroke-width="1"/>
<rect x="851.00" y="719.00" width="11.50" height="16.00" rx="2" fill="#44384b" stroke="#76647e" stroke-width="1"/>
<rect x="869.00" y="593.00" width="11.50" height="16.00" rx="2" fill="#4d3d55" stroke="#76647e" stroke-width="1"/>
<rect x="887.00" y="467.00" width="11.50" height="16.00" rx="2" fill="#44384b" stroke="#76647e" stroke-width="1"/>
<rect x="905.00" y="341.00" width="11.50" height="16.00" rx="2" fill="#4d3d55" stroke="#76647e" stroke-width="1"/>
<rect x="923.00" y="665.00" width="11.50" height="16.00" rx="2" fill="#4d3d55" stroke="#76647e" stroke-width="1"/>
<rect x="941.00" y="539.00" width="11.50" height="16.00" rx="2" fill="#44384b" stroke="#76647e" stroke-width="1"/>
<rect x="959.00" y="413.00" width="11.50" height="16.00" rx="2" fill="#4d3d55" stroke="#76647e" stroke-width="1"/>
<rect x="977.00" y="737.00" width="11.50" height="16.00" rx="2" fill="#4d3d55" stroke="#76647e" stroke-width="1"/>
<rect x="995.00" y="611.00" width="11.50" height="16.00" rx="2" fill="#44384b" stroke="#76647e" stroke-width="1"/>
<rect x="1013.00" y="485.00" width="11.50" height="16.00" rx="2" fill="#4d3d55" stroke="#76647e" stroke-width="1"/>
<rect x="1031.00" y="359.00" width="11.50" height="16.00" rx="2" fill="#44384b" stroke="#76647e" stroke-width="1"/>
<rect x="1049.00" y="683.00" width="11.50" height="16.00" rx="2" fill="#44384b" stroke="#76647e" stroke-width="1"/>
<rect x="1067.00" y="557.00" width="11.50" height="16.00" rx="2" fill="#4d3d55" stroke="#76647e" stroke-width="1"/>
<rect x="1085.00" y="431.00" width="11.50" height="16.00" rx="2" fill="#44384b" stroke="#76647e" stroke-width="1"/>
<rect x="1103.00" y="305.00" width="11.50" height="16.00" rx="2" fill="#4d3d55" stroke="#76647e" stroke-width="1"/>
<rect x="1121.00" y="629.00" width="11.50" height="16.00" rx="2" fill="#4d3d55" stroke="#76647e" stroke-width="1"/>
<rect x="1139.00" y="503.00" width="11.50" height="16.00" rx="2" fill="#44384b" stroke="#76647e" stroke-width="1"/>
<rect x="1157.00" y="377.00" width="11.50" height="16.00" rx="2" fill="#4d3d55" stroke="#76647e" stroke-width="1"/>
<rect x="1175.00" y="701.00" width="11.50" height="16.00" rx="2" fill="#4d3d55" stroke="#76647e" stroke-width="1"/>
<rect x="1193.00" y="575.00" width="11.50" height="16.00" rx="2" fill="#44384b" stroke="#76647e" stroke-width="1"/>
<rect x="1211.00" y="449.00" width="11.50" height="16.00" rx="2" fill="#4d3d55" stroke="#76647e" stroke-width="1"/>
<rect x="1229.00" y="323.00" width="11.50" height="16.00" rx="2" fill="#44384b" stroke="#76647e" stroke-width="1"/>
<rect x="1247.00" y="647.00" width="11.50" height="16.00" rx="2" fill="#44384b" stroke="#76647e" stroke-width="1"/>
<rect x="1265.00" y="521.00" width="11.50" height="16.00" rx="2" fill="#4d3d55" stroke="#76647e" stroke-width="1"/>
<rect x="1283.00" y="395.00" width="11.50" height="16.00" rx="2" fill="#44384b" stroke="#76647e" stroke-width="1"/>
<rect x="1301.00" y="719.00" width="11.50" height="16.00" rx="2" fill="#44384b" stroke="#76647e" stroke-width="1"/>
<rect x="1319.00" y="593.00" width="11.50" height="16.00" rx="2" fill="#4d3d55" stroke="#76647e" stroke-width="1"/>
<rect x="1337.00" y="467.00" width="11.50" height="16.00" rx="2" fill="#44384b" stroke="#76647e" stroke-width="1"/>
<rect x="1355.00" y="341.00" width="11.50" height="16.00" rx="2" fill="#4d3d55" stroke="#76647e" stroke-width="1"/>
<rect x="1373.00" y="665.00" width="11.50" height="16.00" rx="2" fill="#4d3d55" stroke="#76647e" stroke-width="1"/>
<rect x="1391.00" y="539.00" width="11.50" height="16.00" rx="2" fill="#44384b" stroke="#76647e" stroke-width="1"/>
<rect x="1409.00" y="413.00" width="11.50" height="16.00" rx="2" fill="#4d3d55" stroke="#76647e" stroke-width="1"/>
<rect x="1427.00" y="737.00" width="11.50" height="16.00" rx="2" fill="#4d3d55" stroke="#76647e" stroke-width="1"/>
<rect x="1190.00" y="10" width="226" height="32" rx="6" fill="#17161b" stroke="#3e3944"/>
<text x="1208.00" y="31" fill="#c7c0ca" font-family="monospace" font-size="11">76 visible notes</text>
</svg>
